<?xml version="1.0" encoding="utf-8"?>
<!-- Generated by IcoMoon.io -->
<!DOCTYPE svg PUBLIC "-//W3C//DTD SVG 1.1//EN" "http://www.w3.org/Graphics/SVG/1.1/DTD/svg11.dtd">
<svg version="1.1" xmlns="http://www.w3.org/2000/svg" xmlns:xlink="http://www.w3.org/1999/xlink" width="512" height="512" viewBox="0 0 512 512">
<g>
</g>
	<path d="M256.010 16.681c-132.178 0-239.319 107.162-239.319 239.339s107.141 239.298 239.319 239.298c132.158 0 239.298-107.12 239.298-239.298s-107.141-239.339-239.298-239.339zM352.625 270.459c-19.282 25.579-38.553 51.579-57.846 77.599-6.257 9.165-12.514 21.678-18.279 38.103-7.721 21.197-13.046 34.683-15.442 39.977-13.025 27.003-35.656 40.981-68.434 41.462-34.253 0.502-51.589-23.603-51.589-71.824 0-15.421 1.925-30.822 5.294-46.285h15.923c-1.925 21.699-3.358 35.676-3.358 41.001 0 40.96 11.561 61.204 35.174 61.204 21.207 0 37.12-8.202 48.19-24.576 3.85-6.277 11.582-23.603 21.689-52.060 6.288-16.404 12.565-29.378 18.329-39.055 17.828-23.582 35.666-47.678 53.033-71.824 18.77-27.443 27.935-55.399 27.454-82.903-0.461-39.045-8.683-67.942-24.555-87.695-17.849-21.678-47.237-32.758-87.255-32.758-39.024-0.481-66.98 14.94-83.856 46.224-11.55 21.719-17.357 49.203-17.357 82.944 0 12.503 0.492 24.084 2.417 34.703h-17.817c-1.464-11.582-2.417-23.624-2.417-37.581 0-36.638 6.738-66.98 20.244-90.624 20.255-34.724 52.541-52.060 97.853-52.060 46.725 0 80.968 12.063 101.694 36.137 18.8 21.698 28.426 54.477 28.426 98.355 0.45 32.276-8.704 62.638-27.515 91.536zM304.425 126.864c-13.476-18.34-31.785-27.484-54.917-27.484-16.896 0-30.382 6.257-41.953 18.78-11.090 12.083-16.875 26.962-17.346 44.359 55.89 32.758 83.856 65.044 84.347 97.822 0 13.978-3.87 27.505-11.111 41.001-7.71 12.022-14.919 24.084-22.641 36.137-2.406 6.257-7.209 15.902-13.968 27.945-6.256 10.117-14.459 14.94-25.058 14.94-14.469 0-21.698-8.663-21.698-26.983 0-4.823 1.464-11.1 4.823-18.8 3.349-7.721 5.315-13.978 5.315-18.8 0-3.861-1.956-9.656-4.823-16.875-2.887-7.219-4.332-13.476-4.332-19.743 0.942-16.404 9.155-24.115 24.566-23.644 14.459 0.983 21.207 10.117 20.715 28.457-0.952 9.656-6.748 18.299-18.791 25.518 0 8.683-1.434 17.357-5.775 25.559-2.887 6.738-4.844 12.063-5.315 16.384-0.983 9.144 1.444 13.517 6.727 13.517 6.277 0 10.619-3.399 13.977-10.619 1.475-5.305 4.352-13.005 9.175-23.142 7.25-11.079 13.998-22.159 21.207-33.26 7.23-12.042 10.608-24.576 10.137-37.12-0.993-25.037-22.661-50.617-65.065-77.578 5.284 20.695 18.8 39.495 39.977 56.904l-10.096 11.52c-33.28-21.657-49.643-50.596-49.643-86.262 0-24.084 7.209-43.879 21.657-59.3 14.459-14.919 32.788-22.641 54.978-22.641 30.362 0 53.484 10.117 69.397 30.361 13.957 17.838 21.197 41.923 21.197 71.823 0 16.845-7.24 40.018-20.726 68.915l-15.902-6.277c12.514-26 18.791-46.736 18.791-63.099 0.010-23.163-5.776-42.445-17.828-58.317z" fill="#000000" />
</svg>
